<svg width="231" height="64" viewBox="0 0 231 64" fill="none" xmlns="http://www.w3.org/2000/svg">
                    <path fill-rule="evenodd" clip-rule="evenodd"
                        d="M37.5299 63.6143C43.5353 63.6143 48.6717 58.0543 49.0937 53.4274C49.5216 48.732 49.2719 48.7146 49.3357 45.8652C49.4773 39.5081 49.4837 32.3538 49.482 28.5713C49.482 28.1723 48.3697 28.0404 48.3727 28.6487C48.3208 34.7306 44.5531 40.2022 37.7885 40.4294C37.76 40.4302 37.7315 40.4315 37.7034 40.4323C37.6435 40.434 37.5835 40.4353 37.5235 40.4362L37.4112 40.437V40.4379C37.3513 40.437 37.2917 40.4357 37.2317 40.434C37.2032 40.4332 37.1751 40.4319 37.1462 40.4311C30.4314 40.2286 26.6267 34.7319 26.5748 28.6504C26.5778 28.0421 25.4655 28.174 25.4655 28.573C25.4638 32.3555 25.4702 39.5098 25.6118 45.8665C25.6756 48.7159 25.4259 48.7337 25.8538 53.4291C26.2783 58.0849 31.4764 63.6866 37.5299 63.6164V63.6143V63.6143Z"
                        fill="#2B2A29"></path>
                    <path fill-rule="evenodd" clip-rule="evenodd"
                        d="M12.2374 63.593C18.2423 63.593 23.3788 58.033 23.8007 53.4061C24.229 48.7108 23.9793 48.6933 24.0427 45.8439C24.1844 39.4868 24.1912 32.3325 24.1895 28.55C24.189 28.151 23.0768 28.0196 23.0797 28.6278C23.0279 34.7094 19.2606 40.181 12.496 40.4081C12.4675 40.4089 12.439 40.4102 12.4105 40.4111C12.3505 40.4128 12.291 40.414 12.231 40.4149L12.1187 40.4157V40.4166C12.0587 40.4158 11.9987 40.4145 11.9392 40.4128C11.9107 40.4119 11.8822 40.4106 11.8537 40.4098C5.13841 40.2073 1.33414 34.7106 1.28182 28.6291C1.28523 28.0208 0.172974 28.1527 0.172549 28.5517C0.170848 32.3342 0.177641 39.4885 0.31928 45.8456C0.382655 48.695 0.132977 48.7125 0.561297 53.4078C0.985788 58.0636 6.1839 63.6653 12.2374 63.5952V63.593V63.593Z"
                        fill="#2B2A29"></path>
                    <path fill-rule="evenodd" clip-rule="evenodd"
                        d="M24.8658 35.62C30.8707 35.62 36.0072 30.06 36.4291 25.4331C36.8574 20.7378 36.6077 20.7199 36.6711 17.8705C36.8128 11.5138 36.8196 4.35953 36.8179 0.57697C36.8174 0.177999 35.7052 0.0461562 35.7086 0.654395C35.6563 6.73593 31.889 12.2079 25.1244 12.4351C25.0959 12.4359 25.0674 12.4372 25.0389 12.4381C24.9793 12.4398 24.9194 12.441 24.8594 12.4419L24.7471 12.4423V12.4436C24.6871 12.4427 24.6271 12.4415 24.5676 12.4398C24.5391 12.4389 24.5106 12.4376 24.4821 12.4368C17.7672 12.2343 13.9626 6.73764 13.9102 0.656098C13.9136 0.0478592 12.8014 0.179702 12.8009 0.578673C12.7992 4.36124 12.806 11.5155 12.9477 17.8722C13.011 20.7216 12.7614 20.7395 13.1897 25.4348C13.6142 30.0906 18.8123 35.6923 24.8658 35.6222V35.62V35.62Z"
                        fill="#00924F"></path>
                    <path d="M133.498 30.9749H142.005V31.641H142.012V32.9876H133.505V32.3215H133.498V30.9749Z"
                        fill="#2B2A29"></path>
                    <path
                        d="M86.2179 22.0546H87.5926C87.5926 28.1365 87.5994 34.2559 87.5994 40.3494H86.2251C86.2251 34.2679 86.2179 28.148 86.2179 22.0546V22.0546Z"
                        fill="#2B2A29"></path>
                    <path
                        d="M127.108 33.1441H113.61L113.618 40.3524H112.338V39.6863H112.33V25.7912C112.33 24.7181 112.749 23.7492 113.421 23.0529C114.063 22.3893 114.941 21.9776 115.9 21.9776L128.503 21.9593C128.374 27.9911 128.482 34.2751 128.482 40.3524H127.108V33.1441ZM113.607 30.9204H127.108V23.907L115.553 23.9095C114.819 23.9278 114.376 24.4242 114.171 24.6356C113.664 25.2719 113.602 25.9652 113.602 26.2195L113.607 30.9204Z"
                        fill="#2B2A29"></path>
                    <path
                        d="M147.287 25.7823C147.287 24.7092 147.705 23.7402 148.378 23.0439C149.019 22.3808 149.898 21.9687 150.857 21.9687L162.174 21.9504L162.159 22.6169H162.181L162.153 23.898L150.51 23.9006C149.775 23.9193 149.332 24.4152 149.128 24.6271C148.62 25.263 148.558 25.9563 148.558 26.211L148.564 30.9115H158.891C158.891 31.6533 158.886 32.3866 158.886 33.1348L148.566 33.1352L148.574 40.3434H147.294C147.294 35.5052 147.287 30.632 147.287 25.7823V25.7823Z"
                        fill="#2B2A29"></path>
                    <path
                        d="M203.511 40.3426H204.886V23.9563L212.867 23.9576V40.3524H214.242V23.9576L220.409 23.9589C221.144 23.9771 221.587 24.4731 221.791 24.6849C222.212 25.2115 222.326 25.7776 222.353 26.1013C222.348 30.8469 222.351 35.6196 222.345 40.352H223.625C223.625 35.515 223.618 30.6771 223.618 25.8401C223.618 24.7674 223.2 23.7985 222.527 23.1022C221.885 22.4387 221.007 22.027 220.049 22.027L203.476 22.0087C203.543 28.1281 203.511 34.244 203.511 40.3426V40.3426Z"
                        fill="#2B2A29"></path>
                    <path
                        d="M63.4677 40.3468V39.6807H63.4604V22.9125V21.9746H64.2962L78.9909 37.7939L78.8757 21.9746H80.4035L80.4014 22.6407H80.4107L80.3559 40.3468L78.1381 40.3485L64.9389 25.5254L65.0691 40.3468H63.4677Z"
                        fill="#2B2A29"></path>
                    <path
                        d="M178.982 40.3579V33.1279H165.484L165.492 40.3362H164.212C164.212 35.4979 164.205 30.6244 164.205 25.7746C164.205 24.7015 164.623 23.7325 165.296 23.0367C165.938 22.3732 166.816 21.9614 167.775 21.9614L180.378 21.9427C180.248 27.9749 180.357 34.2802 180.357 40.3579H178.982V40.3579ZM178.982 30.9042V23.8904L167.428 23.8933C166.693 23.9116 166.25 24.4076 166.046 24.6194C165.538 25.2553 165.476 25.9486 165.476 26.2034L165.482 30.9042H178.982Z"
                        fill="#2B2A29"></path>
                    <path
                        d="M99.0692 40.3469V24.217H91.9762C91.9762 23.4752 91.969 22.7411 91.969 21.9933H107.529C107.529 22.7351 107.537 23.4688 107.537 24.217H100.444V40.3469H99.0692Z"
                        fill="#2B2A29"></path>
                    <path
                        d="M199.173 28.1434H199.172L199.173 26.4437V26.1005C199.146 25.7776 199.033 25.2085 198.61 24.6794C198.406 24.4676 197.963 23.9716 197.228 23.9533L185.673 23.9503V30.9145L197.221 30.9119C197.956 30.8936 198.398 30.3977 198.603 30.1859C199.111 29.55 199.173 28.8567 199.173 28.6019V28.1434V28.1434ZM200.444 28.8095V29.0306C200.444 30.1038 200.026 31.0723 199.353 31.7686C199.299 31.8247 199.243 31.8787 199.185 31.931C199.232 31.9749 199.278 32.0195 199.323 32.0659C199.996 32.7622 200.414 33.7311 200.414 34.8038V35.2376C200.418 35.3142 200.421 35.392 200.421 35.4703L200.424 40.3528H199.144C199.148 38.5821 199.144 36.8395 199.148 35.0569C199.12 34.7323 199.004 34.1713 198.587 33.6486C198.382 33.4367 197.94 32.9408 197.205 32.9225L185.673 32.92V40.3434H184.299V23.9503L184.271 22.6692H184.278L184.264 22.0027L196.867 22.0214C197.826 22.0214 198.704 22.4332 199.346 23.0967C200.019 23.793 200.437 24.7615 200.437 25.8346V26.2629C200.441 26.3416 200.444 26.4207 200.444 26.5007V28.8095V28.8095Z"
                        fill="#2B2A29"></path>
                    <path
                        d="M65.4413 46.1034C65.6982 46.1034 65.9053 46.0128 66.0639 45.8337C66.1231 45.7661 66.1537 45.6428 66.1537 45.4637C66.1537 45.3072 66.1027 45.1608 66.0035 45.0273C65.9257 44.9158 65.7475 44.8589 65.4698 44.8589H64.0768V46.1034H65.4413ZM65.4698 44.2204C65.9257 44.2204 66.2613 44.3438 66.4787 44.5905C66.6569 44.7925 66.7462 45.049 66.7462 45.3637C66.7462 45.6772 66.6773 45.9124 66.5382 46.069C66.4395 46.1808 66.3017 46.2825 66.1231 46.371C66.3404 46.462 66.5093 46.5738 66.6284 46.7087C66.8053 46.909 66.8942 47.1889 66.8942 47.5474C66.8942 47.9519 66.8155 48.2425 66.6569 48.422C66.42 48.6904 66.0742 48.8252 65.6195 48.8252H63.483V44.2204H65.4698ZM64.0768 46.741V48.1872H65.5893C65.8662 48.1872 66.0538 48.1306 66.1537 48.0192C66.2524 47.906 66.3017 47.7376 66.3017 47.5143C66.3017 47.2676 66.232 47.077 66.0946 46.9435C65.9551 46.8087 65.7475 46.741 65.4698 46.741H64.0768V46.741ZM70.5071 46.7087C70.5271 47.2905 70.6568 47.7167 70.8933 47.9843C71.0715 48.1872 71.3288 48.2871 71.6644 48.2871C72.0804 48.2871 72.3662 48.1872 72.5249 47.9843C72.644 47.8286 72.7524 47.6147 72.8516 47.3467L73.3547 47.6491C73.2369 47.9634 73.0791 48.231 72.8796 48.4552C72.6236 48.7461 72.2186 48.8924 71.6644 48.8924C71.1702 48.8924 70.7848 48.7359 70.5071 48.422C70.1119 47.9728 69.9146 47.3467 69.9146 46.539C69.9146 45.6887 70.0915 45.0605 70.4488 44.6577C70.7448 44.3208 71.1498 44.1532 71.6644 44.1532C72.1587 44.1532 72.5551 44.3208 72.8516 44.6577C73.2063 45.0605 73.3853 45.6887 73.3853 46.539V46.7087H70.5071V46.7087ZM72.7627 46.069C72.7422 45.6428 72.6236 45.3072 72.4054 45.0605C72.2289 44.8589 71.9719 44.7585 71.6351 44.7585C71.2795 44.7585 71.0022 44.8819 70.8052 45.1286C70.607 45.3753 70.5071 45.6887 70.5071 46.069H72.7627V46.069ZM79.8752 44.8589H78.5707V48.8252H77.9765V46.8422V44.8589H76.6716V44.2204H79.8752V44.8589V44.8589ZM83.8437 46.7087C83.8641 47.2905 83.9934 47.7167 84.2307 47.9843C84.409 48.1872 84.6654 48.2871 85.001 48.2871C85.4179 48.2871 85.7037 48.1872 85.8615 47.9843C85.9806 47.8286 86.0899 47.6147 86.1881 47.3467L86.6922 47.6491C86.5744 47.9634 86.4166 48.231 86.2171 48.4552C85.9606 48.7461 85.5561 48.8924 85.001 48.8924C84.5072 48.8924 84.1214 48.7359 83.8437 48.422C83.4494 47.9728 83.252 47.3467 83.252 46.539C83.252 45.6887 83.429 45.0605 83.7862 44.6577C84.0823 44.3208 84.4868 44.1532 85.001 44.1532C85.4957 44.1532 85.8921 44.3208 86.1881 44.6577C86.5437 45.0605 86.7228 45.6887 86.7228 46.539V46.7087H83.8437V46.7087ZM86.1001 46.069C86.0797 45.6428 85.9606 45.3072 85.7428 45.0605C85.5659 44.8589 85.3085 44.7585 84.9717 44.7585C84.6161 44.7585 84.3392 44.8819 84.1418 45.1286C83.9445 45.3753 83.8437 45.6887 83.8437 46.069H86.1001V46.069ZM90.6317 47.5143C91.0077 48.029 91.4122 48.2871 91.8477 48.2871C92.1642 48.2871 92.4109 48.1872 92.59 47.9843C92.8465 47.6938 92.9762 47.1557 92.9762 46.371C92.9762 45.7891 92.8567 45.3638 92.6189 45.0954C92.4211 44.8704 92.1744 44.7585 91.8784 44.7585C91.4428 44.7585 91.0281 44.9937 90.6317 45.4637V47.5143V47.5143ZM90.6317 44.2204V44.8257C91.0668 44.3782 91.4922 44.1532 91.9077 44.1532C92.382 44.1532 92.7682 44.3208 93.0642 44.6577C93.4011 45.0375 93.5683 45.6334 93.5683 46.439C93.5683 47.3122 93.3909 47.952 93.0349 48.3543C92.7184 48.7129 92.3433 48.8924 91.9077 48.8924C91.3731 48.8924 90.9481 48.6572 90.6317 48.1872V49.9677H90.0379V44.2204H90.6317ZM97.2998 44.2204V47.4471L99.2581 44.6577V44.2204H99.8522V48.8252H99.2581V45.5986L97.2998 48.3875V48.8252H96.7069V44.2204H97.2998ZM103.94 44.2204V46.0358H105.956V44.2204H106.549V48.8252H105.956V47.7495V46.6738H103.94V48.8252H103.346V44.2204H103.94V44.2204ZM112.684 48.0523C112.289 48.6125 111.795 48.8924 111.2 48.8924C110.826 48.8924 110.548 48.792 110.37 48.5895C110.134 48.322 110.015 47.9958 110.015 47.6146C110.015 47.2561 110.113 46.9651 110.311 46.741C110.51 46.5173 110.816 46.3272 111.231 46.1706C111.587 46.0358 112.061 45.878 112.655 45.6989C112.675 45.4305 112.624 45.2289 112.507 45.0954C112.308 44.8704 112.061 44.7585 111.765 44.7585C111.369 44.7585 111.082 44.8589 110.904 45.0605C110.806 45.1723 110.676 45.3519 110.518 45.5986L110.043 45.1957C110.242 44.8818 110.409 44.6692 110.548 44.5573C110.884 44.2876 111.28 44.1532 111.734 44.1532C112.229 44.1532 112.624 44.3208 112.921 44.6577C113.14 44.9044 113.248 45.3637 113.248 46.0358V47.6146C113.248 47.8843 113.326 48.2871 113.485 48.8252H112.833C112.753 48.6227 112.704 48.3658 112.684 48.0523V48.0523ZM111.379 46.6738C111.122 46.7856 110.924 46.9205 110.786 47.077C110.667 47.2119 110.608 47.3909 110.608 47.6146C110.608 47.7941 110.667 47.952 110.786 48.0855C110.904 48.2195 111.072 48.2871 111.29 48.2871C111.824 48.2871 112.279 48.0192 112.655 47.4815V46.2038C112.318 46.2927 111.893 46.4505 111.379 46.6738V46.6738ZM117.305 47.5143C117.682 48.029 118.086 48.2871 118.522 48.2871C118.839 48.2871 119.085 48.1872 119.264 47.9843C119.521 47.6938 119.65 47.1557 119.65 46.371C119.65 45.7891 119.531 45.3638 119.293 45.0954C119.095 44.8704 118.849 44.7585 118.552 44.7585C118.117 44.7585 117.702 44.9937 117.305 45.4637V47.5143V47.5143ZM117.305 44.2204V44.8257C117.741 44.3782 118.166 44.1532 118.582 44.1532C119.056 44.1532 119.442 44.3208 119.738 44.6577C120.075 45.0375 120.242 45.6334 120.242 46.439C120.242 47.3122 120.065 47.952 119.709 48.3543C119.393 48.7129 119.017 48.8924 118.582 48.8924C118.047 48.8924 117.622 48.6572 117.305 48.1872V49.9677H116.712V44.2204H117.305V44.2204ZM123.945 44.2204V46.0358H125.961V44.2204H126.555V48.8252H125.961V47.7495V46.6738H123.945V48.8252H123.351V44.2204H123.945V44.2204ZM132.689 48.0523C132.294 48.6125 131.8 48.8924 131.205 48.8924C130.832 48.8924 130.554 48.792 130.376 48.5895C130.139 48.322 130.02 47.9958 130.02 47.6146C130.02 47.2561 130.119 46.9651 130.316 46.741C130.515 46.5173 130.821 46.3272 131.236 46.1706C131.592 46.0358 132.066 45.878 132.661 45.6989C132.681 45.4305 132.63 45.2289 132.512 45.0954C132.313 44.8704 132.066 44.7585 131.77 44.7585C131.374 44.7585 131.088 44.8589 130.909 45.0605C130.811 45.1723 130.682 45.3519 130.523 45.5986L130.049 45.1957C130.248 44.8818 130.414 44.6692 130.554 44.5573C130.889 44.2876 131.285 44.1532 131.74 44.1532C132.235 44.1532 132.63 44.3208 132.927 44.6577C133.145 44.9044 133.254 45.3637 133.254 46.0358V47.6146C133.254 47.8843 133.332 48.2871 133.49 48.8252H132.839C132.759 48.6227 132.709 48.3658 132.689 48.0523V48.0523ZM131.384 46.6738C131.128 46.7856 130.93 46.9205 130.791 47.077C130.673 47.2119 130.613 47.3909 130.613 47.6146C130.613 47.7941 130.673 47.952 130.791 48.0855C130.909 48.2195 131.077 48.2871 131.296 48.2871C131.83 48.2871 132.285 48.0192 132.661 47.4815V46.2038C132.324 46.2927 131.898 46.4505 131.384 46.6738V46.6738ZM138.024 44.8589C137.767 44.8589 137.578 44.9256 137.459 45.0605C137.341 45.1957 137.282 45.3638 137.282 45.5654C137.282 45.7661 137.341 45.9341 137.459 46.069C137.578 46.2038 137.767 46.271 138.024 46.271H139.15V44.8589H138.024ZM139.15 46.909H138.024L137.252 48.8252H136.569L137.459 46.7742C137.262 46.6857 137.124 46.5956 137.045 46.5058C136.826 46.2595 136.718 45.9456 136.718 45.5654C136.718 45.1838 136.826 44.8704 137.045 44.6237C137.282 44.3553 137.609 44.2204 138.024 44.2204H139.744V48.8252H139.15V47.8495V46.909V46.909ZM148.524 44.7925C148.802 44.3668 149.138 44.1532 149.533 44.1532C149.929 44.1532 150.265 44.3106 150.542 44.6237C150.918 45.049 151.105 45.6772 151.105 46.5058C151.105 47.3795 150.938 48.0077 150.601 48.3875C150.305 48.7244 149.979 48.8924 149.623 48.8924C149.227 48.8924 148.861 48.6687 148.524 48.2195V49.9677H147.932V48.2195C147.596 48.6687 147.229 48.8924 146.833 48.8924C146.478 48.8924 146.151 48.7244 145.855 48.3875C145.518 48.0077 145.352 47.3795 145.352 46.5058C145.352 45.6772 145.539 45.049 145.915 44.6237C146.192 44.3106 146.527 44.1532 146.924 44.1532C147.318 44.1532 147.655 44.3668 147.932 44.7925V42.272H148.524V44.7925ZM148.524 47.5474C148.762 48.0638 149.108 48.322 149.564 48.322C149.8 48.322 149.998 48.231 150.155 48.0523C150.394 47.7839 150.513 47.2676 150.513 46.5058C150.513 45.8121 150.394 45.3306 150.155 45.0605C149.979 44.8589 149.751 44.7585 149.473 44.7585C149.118 44.7585 148.802 45.0052 148.524 45.4986V47.5474V47.5474ZM147.932 45.4986C147.655 45.0052 147.338 44.7585 146.983 44.7585C146.705 44.7585 146.478 44.8589 146.301 45.0605C146.062 45.3306 145.944 45.8121 145.944 46.5058C145.944 47.2676 146.062 47.7839 146.301 48.0523C146.459 48.231 146.656 48.322 146.893 48.322C147.348 48.322 147.694 48.0638 147.932 47.5474V45.4986V45.4986ZM155.934 48.0523C155.54 48.6125 155.045 48.8924 154.451 48.8924C154.077 48.8924 153.8 48.792 153.621 48.5895C153.384 48.322 153.265 47.9958 153.265 47.6146C153.265 47.2561 153.364 46.9651 153.561 46.741C153.76 46.5173 154.066 46.3272 154.482 46.1706C154.837 46.0358 155.312 45.878 155.906 45.6989C155.926 45.4305 155.875 45.2289 155.757 45.0954C155.558 44.8704 155.312 44.7585 155.016 44.7585C154.62 44.7585 154.333 44.8589 154.155 45.0605C154.056 45.1723 153.927 45.3519 153.769 45.5986L153.295 45.1957C153.493 44.8818 153.66 44.6692 153.8 44.5573C154.135 44.2876 154.531 44.1532 154.985 44.1532C155.481 44.1532 155.875 44.3208 156.172 44.6577C156.39 44.9044 156.499 45.3637 156.499 46.0358V47.6146C156.499 47.8843 156.577 48.2871 156.735 48.8252H156.084C156.004 48.6227 155.955 48.3658 155.934 48.0523V48.0523ZM154.629 46.6738C154.373 46.7856 154.176 46.9205 154.036 47.077C153.918 47.2119 153.859 47.3909 153.859 47.6146C153.859 47.7941 153.918 47.952 154.036 48.0855C154.155 48.2195 154.323 48.2871 154.541 48.2871C155.075 48.2871 155.53 48.0192 155.906 47.4815V46.2038C155.569 46.2927 155.144 46.4505 154.629 46.6738V46.6738ZM160.556 47.5143C160.932 48.029 161.338 48.2871 161.773 48.2871C162.089 48.2871 162.336 48.1872 162.514 47.9843C162.771 47.6938 162.901 47.1557 162.901 46.371C162.901 45.7891 162.782 45.3638 162.544 45.0954C162.346 44.8704 162.099 44.7585 161.803 44.7585C161.368 44.7585 160.953 44.9937 160.556 45.4637V47.5143V47.5143ZM160.556 44.2204V44.8257C160.991 44.3782 161.417 44.1532 161.832 44.1532C162.306 44.1532 162.694 44.3208 162.99 44.6577C163.326 45.0375 163.493 45.6334 163.493 46.439C163.493 47.3122 163.315 47.952 162.96 48.3543C162.643 48.7129 162.268 48.8924 161.832 48.8924C161.298 48.8924 160.873 48.6572 160.556 48.1872V49.9677H159.963V44.2204H160.556ZM168.501 48.8252H167.907L166.929 45.4305H166.869V48.8252H166.276V44.2204H167.136L168.174 47.8495H168.234L169.271 44.2204H170.132V48.8252H169.539V45.4305H169.479L168.501 48.8252V48.8252ZM175.94 48.0523C175.545 48.6125 175.051 48.8924 174.457 48.8924C174.082 48.8924 173.805 48.792 173.627 48.5895C173.39 48.322 173.271 47.9958 173.271 47.6146C173.271 47.2561 173.369 46.9651 173.567 46.741C173.766 46.5173 174.072 46.3272 174.487 46.1706C174.843 46.0358 175.317 45.878 175.911 45.6989C175.931 45.4305 175.88 45.2289 175.763 45.0954C175.564 44.8704 175.317 44.7585 175.021 44.7585C174.626 44.7585 174.339 44.8589 174.161 45.0605C174.062 45.1723 173.932 45.3519 173.775 45.5986L173.3 45.1957C173.499 44.8818 173.665 44.6692 173.805 44.5573C174.14 44.2876 174.536 44.1532 174.991 44.1532C175.486 44.1532 175.88 44.3208 176.178 44.6577C176.396 44.9044 176.504 45.3637 176.504 46.0358V47.6146C176.504 47.8843 176.583 48.2871 176.741 48.8252H176.089C176.01 48.6227 175.96 48.3658 175.94 48.0523V48.0523ZM174.635 46.6738C174.378 46.7856 174.181 46.9205 174.042 47.077C173.923 47.2119 173.865 47.3909 173.865 47.6146C173.865 47.7941 173.923 47.952 174.042 48.0855C174.161 48.2195 174.329 48.2871 174.546 48.2871C175.08 48.2871 175.535 48.0192 175.911 47.4815V46.2038C175.574 46.2927 175.149 46.4505 174.635 46.6738V46.6738ZM181.452 48.8252H179.968V44.2204H180.562V48.1872H182.46V44.2204H183.054V48.1872H183.558V49.7324H182.965V48.8252H181.452ZM187.111 46.7087C187.132 47.2905 187.261 47.7167 187.497 47.9843C187.676 48.1872 187.933 48.2871 188.268 48.2871C188.684 48.2871 188.97 48.1872 189.129 47.9843C189.248 47.8286 189.357 47.6147 189.456 47.3467L189.959 47.6491C189.841 47.9634 189.683 48.231 189.484 48.4552C189.228 48.7461 188.823 48.8924 188.268 48.8924C187.775 48.8924 187.388 48.7359 187.111 48.422C186.716 47.9728 186.519 47.3467 186.519 46.539C186.519 45.6887 186.696 45.0605 187.053 44.6577C187.349 44.3208 187.754 44.1532 188.268 44.1532C188.763 44.1532 189.16 44.3208 189.456 44.6577C189.811 45.0605 189.989 45.6887 189.989 46.539V46.7087H187.111V46.7087ZM189.367 46.069C189.347 45.6428 189.228 45.3072 189.01 45.0605C188.833 44.8589 188.576 44.7585 188.24 44.7585C187.883 44.7585 187.607 44.8819 187.409 45.1286C187.212 45.3753 187.111 45.6887 187.111 46.069H189.367V46.069ZM195.382 46.1034C195.639 46.1034 195.846 46.0128 196.005 45.8337C196.064 45.7661 196.094 45.6428 196.094 45.4637C196.094 45.3072 196.044 45.1608 195.945 45.0273C195.867 44.9158 195.689 44.8589 195.411 44.8589H194.018V46.1034H195.382ZM195.411 44.2204C195.867 44.2204 196.202 44.3438 196.421 44.5905C196.599 44.7925 196.687 45.049 196.687 45.3637C196.687 45.6772 196.619 45.9124 196.479 46.069C196.381 46.1808 196.243 46.2825 196.064 46.371C196.282 46.462 196.451 46.5738 196.569 46.7087C196.746 46.909 196.835 47.1889 196.835 47.5474C196.835 47.9519 196.757 48.2425 196.599 48.422C196.361 48.6904 196.015 48.8252 195.561 48.8252H193.424V44.2204H195.411ZM194.018 46.741V48.1872H195.53C195.808 48.1872 195.995 48.1306 196.094 48.0192C196.193 47.906 196.243 47.7376 196.243 47.5143C196.243 47.2676 196.173 47.077 196.036 46.9435C195.896 46.8087 195.689 46.741 195.411 46.741H194.018V46.741ZM203.148 44.8589H201.844V48.8252H201.25V46.8422V44.8589H199.945V44.2204H203.148V44.8589ZM207.236 44.2204V47.4471L209.194 44.6577V44.2204H209.788V48.8252H209.194V45.5986L207.236 48.3875V48.8252H206.642V44.2204H207.236ZM214.052 46.237C214.607 46.2595 214.933 46.1362 215.032 45.8682C215.19 45.442 215.299 45.0954 215.359 44.8257C215.517 44.4225 215.763 44.2204 216.1 44.2204H216.456V44.8589H216.189C216.049 44.8589 215.951 44.9376 215.891 45.0954C215.793 45.3867 215.704 45.6657 215.626 45.9341C215.546 46.2038 215.447 46.3944 215.328 46.5058L216.604 48.8252H215.862L214.795 46.7742C214.596 46.8205 214.35 46.8422 214.052 46.8422V48.8252H213.459V44.2204H214.052V46.237V46.237ZM222.619 48.0523C222.225 48.6125 221.73 48.8924 221.136 48.8924C220.762 48.8924 220.484 48.792 220.306 48.5895C220.069 48.322 219.95 47.9958 219.95 47.6146C219.95 47.2561 220.049 46.9651 220.246 46.741C220.445 46.5173 220.751 46.3272 221.166 46.1706C221.523 46.0358 221.997 45.878 222.591 45.6989C222.611 45.4305 222.56 45.2289 222.442 45.0954C222.244 44.8704 221.997 44.7585 221.701 44.7585C221.304 44.7585 221.019 44.8589 220.84 45.0605C220.742 45.1723 220.612 45.3519 220.454 45.5986L219.979 45.1957C220.178 44.8818 220.345 44.6692 220.484 44.5573C220.819 44.2876 221.216 44.1532 221.671 44.1532C222.165 44.1532 222.56 44.3208 222.858 44.6577C223.075 44.9044 223.184 45.3637 223.184 46.0358V47.6146C223.184 47.8843 223.262 48.2871 223.42 48.8252H222.769C222.689 48.6227 222.64 48.3658 222.619 48.0523V48.0523ZM221.314 46.6738C221.058 46.7856 220.861 46.9205 220.721 47.077C220.603 47.2119 220.544 47.3909 220.544 47.6146C220.544 47.7941 220.603 47.952 220.721 48.0855C220.84 48.2195 221.008 48.2871 221.226 48.2871C221.76 48.2871 222.215 48.0192 222.591 47.4815V46.2038C222.254 46.2927 221.829 46.4505 221.314 46.6738V46.6738Z"
                        fill="#2B2A29"></path>
                    <path fill-rule="evenodd" clip-rule="evenodd"
                        d="M227.23 15.2406C228.034 15.2406 228.727 15.529 229.305 16.1062C229.883 16.6825 230.172 17.3758 230.172 18.187C230.172 18.9964 229.884 19.6914 229.308 20.2686C228.733 20.8475 228.04 21.1371 227.23 21.1371C226.417 21.1371 225.722 20.8475 225.143 20.2716C224.566 19.694 224.276 18.9989 224.276 18.187C224.276 17.3733 224.565 16.68 225.146 16.1036C225.724 15.529 226.419 15.2406 227.23 15.2406V15.2406ZM227.222 20.6514C227.897 20.6514 228.476 20.4102 228.958 19.9275C229.442 19.4447 229.684 18.8645 229.684 18.187C229.684 17.5094 229.442 16.9305 228.961 16.4503C228.478 15.9688 227.899 15.7289 227.222 15.7289C226.545 15.7289 225.966 15.9688 225.486 16.4503C225.004 16.9305 224.764 17.5094 224.764 18.187C224.764 18.8645 225.004 19.4447 225.486 19.9275C225.966 20.4102 226.545 20.6514 227.222 20.6514ZM228.551 19.8194H227.965L227.718 19.1287C227.57 18.7135 227.29 18.5068 226.878 18.5068H226.475V19.8194H225.964V16.6506H227.155C227.994 16.6506 228.414 16.9412 228.414 17.5226C228.414 18.0828 228.138 18.3831 227.589 18.4256C227.87 18.5111 228.08 18.711 228.215 19.027L228.551 19.8194ZM226.475 18.0653H227.117C227.619 18.0653 227.87 17.9003 227.87 17.5694C227.87 17.244 227.611 17.0811 227.092 17.0811H226.475V18.0653V18.0653Z"
                        fill="#2B2A29"></path>
                </svg>